<?xml version="1.0" encoding="UTF-8" standalone="no"?>
<!DOCTYPE svg PUBLIC "-//W3C//DTD SVG 1.1//EN" "http://www.w3.org/Graphics/SVG/1.1/DTD/svg11.dtd">
<svg width="100%" height="100%" viewBox="0 0 355 478" version="1.1" xmlns="http://www.w3.org/2000/svg" xmlns:xlink="http://www.w3.org/1999/xlink" xml:space="preserve" xmlns:serif="http://www.serif.com/" style="fill-rule:evenodd;clip-rule:evenodd;stroke-linejoin:round;stroke-miterlimit:2;">
    <g transform="matrix(1,0,0,1,-7172.31868,-1019.568514)">
        <g transform="matrix(1,0,0,1,1975.885033,0)">
            <g transform="matrix(1.316554,0,0,1.316554,5024.44125,915.922131)">
                <path d="M309.327,176.548C307.023,170.788 304.393,168.861 296.5,168.987C287.638,169.129 235.233,168.982 231.489,169.055C224.157,169.198 221.8,175.224 221.381,177.476C220.78,180.705 221.172,353.949 221.159,355.497C221.103,362.273 219.296,362.758 206.528,375.528C196.404,385.655 161.851,420.342 156.548,425.548C145.686,436.21 143.438,438.948 141.38,440.32C138.439,442.28 135.029,441.274 133.696,440.238C131.598,438.609 131.283,436.875 131.165,436.588C131.11,436.206 130.976,435.839 130.922,435.457C130.734,434.148 130.932,291.463 130.82,281.438C130.814,280.805 130.766,275.3 130.72,273.528C130.751,271.983 130.75,272.003 130.713,270.472C130.797,267.248 130.843,263.188 130.85,262.554C130.39,262.616 130.823,256.442 130.823,256.442C131.143,253.548 131.166,253.568 131.816,250.726L132.074,250.214C132.528,249.22 132.511,249.228 133.056,248.285C134.361,246.08 134.403,246.117 137.212,243.204C138.681,241.682 138.665,241.692 140.223,240.249C141.241,239.218 141.232,239.228 142.263,238.224C144.147,236.136 272.925,107.36 287.241,93.231C297.821,82.789 299.081,80.465 305.436,79.169C307.493,78.75 307.507,78.797 383.5,78.797C387.587,78.797 398.076,77.355 399.879,87.44C400.128,88.83 400.103,88.832 400.103,160.5C400.103,176.054 400.938,180.932 395.094,187.118C394.732,187.501 337.6,244.615 332.599,249.614C330.783,251.396 329.931,252.396 329.713,252.651C329.525,252.849 329.375,253.08 329.186,253.278C327.653,254.884 325.712,256.036 321.165,261.228C319.385,262.134 319.419,262.171 317.511,262.75C315.984,262.781 315.996,262.802 314.478,262.561C309.455,260.233 309.68,257.864 309.846,252.507C309.678,249.568 309.719,249.577 309.719,230.5C309.719,179.276 309.768,179.257 309.327,176.548ZM194.11,237.481C193.034,236.411 191.292,236.414 190.222,237.49L137.835,290.112C136.765,291.187 136.769,292.929 137.844,294C138.919,295.07 140.661,295.066 141.732,293.991L194.118,241.369C195.189,240.293 195.185,238.551 194.11,237.481ZM194.11,281.381C193.034,280.311 191.292,280.315 190.222,281.39L137.835,334.013C136.765,335.088 136.769,336.83 137.844,337.9C138.919,338.971 140.661,338.967 141.732,337.891L194.118,285.269C195.189,284.194 195.185,282.452 194.11,281.381ZM194.11,217.97C193.034,216.899 191.292,216.903 190.222,217.978L137.835,270.601C136.765,271.676 136.769,273.418 137.844,274.488C138.919,275.559 140.661,275.555 141.732,274.48L194.118,221.857C195.189,220.782 195.185,219.04 194.11,217.97ZM198.688,259.431C197.612,260.502 197.609,262.244 198.679,263.319L206.835,271.512C207.906,272.587 209.648,272.591 210.723,271.521C211.798,270.45 211.802,268.708 210.732,267.633L202.575,259.44C201.505,258.365 199.763,258.361 198.688,259.431ZM198.688,329.574C197.612,330.645 197.609,332.387 198.679,333.462L206.835,341.655C207.906,342.73 209.648,342.734 210.723,341.664C211.798,340.593 211.802,338.851 210.732,337.776L202.575,329.583C201.505,328.508 199.763,328.504 198.688,329.574ZM194.11,305.771C193.034,304.7 191.292,304.704 190.222,305.779L137.835,358.402C136.765,359.477 136.769,361.219 137.844,362.289C138.919,363.36 140.661,363.356 141.732,362.281L194.118,309.658C195.189,308.583 195.185,306.841 194.11,305.771ZM194.11,259.431C193.034,258.361 191.292,258.365 190.222,259.44L137.835,312.062C136.765,313.138 136.769,314.88 137.844,315.95C138.919,317.02 140.661,317.016 141.732,315.941L194.118,263.319C195.189,262.244 195.185,260.502 194.11,259.431ZM198.688,217.97C197.612,219.04 197.609,220.782 198.679,221.857L206.835,230.05C207.906,231.126 209.648,231.13 210.723,230.059C211.798,228.989 211.802,227.247 210.732,226.172L202.575,217.978C201.505,216.903 199.763,216.899 198.688,217.97ZM194.11,329.574C193.034,328.504 191.292,328.508 190.222,329.583L137.835,382.205C136.765,383.281 136.769,385.023 137.844,386.093C138.919,387.164 140.661,387.16 141.732,386.084L194.118,333.462C195.189,332.387 195.185,330.645 194.11,329.574ZM198.688,237.481C197.612,238.551 197.609,240.293 198.679,241.369L206.835,249.562C207.906,250.637 209.648,250.641 210.723,249.57C211.798,248.5 211.802,246.758 210.732,245.683L202.575,237.49C201.505,236.414 199.763,236.411 198.688,237.481ZM198.688,281.381C197.612,282.452 197.609,284.194 198.679,285.269L206.835,293.462C207.906,294.537 209.648,294.541 210.723,293.471C211.798,292.401 211.802,290.659 210.732,289.583L202.575,281.39C201.505,280.315 199.763,280.311 198.688,281.381ZM198.688,305.771C197.612,306.841 197.609,308.583 198.679,309.658L206.835,317.851C207.906,318.927 209.648,318.93 210.723,317.86C211.798,316.79 211.802,315.048 210.732,313.972L202.575,305.779C201.505,304.704 199.763,304.7 198.688,305.771ZM350.502,275.477C363.732,276.677 374.054,284.135 379.297,288.734C402.14,308.769 400.109,331.433 400.109,343.5C400.109,362.025 400.435,362.49 397.928,364.928C395.566,367.224 395.167,366.922 376.5,366.922C316.043,366.922 316.014,366.978 314.49,366.533C308.859,364.887 309.732,358.819 309.732,351.5L309.962,280.592C310.099,279.371 310.479,276.182 314.501,275.502C320.707,275.405 343.097,274.805 350.502,275.477ZM341.852,282.965C341.116,282.965 340.759,284.199 341.798,284.261C381.776,286.653 392.981,321.547 392.476,337.709C392.478,338.676 394.115,338.807 393.986,337.129C393.986,307.235 370.626,282.965 341.852,282.965Z" style="fill:url(#_Linear1);"/>
            </g>
        </g>
    </g>
    <defs>
        <linearGradient id="_Linear1" x1="0" y1="0" x2="1" y2="0" gradientUnits="userSpaceOnUse" gradientTransform="matrix(293.527828,0,0,382.683298,130.638344,195.586915)"><stop offset="0" style="stop-color:rgb(216,193,145);stop-opacity:1"/><stop offset="0.2" style="stop-color:rgb(174,129,36);stop-opacity:1"/><stop offset="0.42" style="stop-color:rgb(193,159,88);stop-opacity:1"/><stop offset="0.68" style="stop-color:rgb(192,146,50);stop-opacity:1"/><stop offset="1" style="stop-color:rgb(160,149,126);stop-opacity:1"/></linearGradient>
    </defs>
</svg>
