<?xml version="1.0" encoding="UTF-8" standalone="no"?>
<!DOCTYPE svg PUBLIC "-//W3C//DTD SVG 1.1//EN" "http://www.w3.org/Graphics/SVG/1.1/DTD/svg11.dtd">
<svg width="100%" height="100%" viewBox="0 0 2698 813" version="1.1" xmlns="http://www.w3.org/2000/svg" xmlns:xlink="http://www.w3.org/1999/xlink" xml:space="preserve" xmlns:serif="http://www.serif.com/" style="fill-rule:evenodd;clip-rule:evenodd;stroke-linejoin:round;stroke-miterlimit:2;">
    <g transform="matrix(1,0,0,1,-24639.050808,-1840.346495)">
        <g transform="matrix(1.834419,0,0,1.920506,16188.020591,0)">
            <g transform="matrix(6.121498,0,0,5.847101,-5041.165022,-8896.916733)">
                <path d="M1650.466,1729.538L1655.516,1729.538L1655.516,1716.738L1656.166,1716.738C1658.166,1724.138 1665.016,1729.538 1673.016,1729.538L1673.016,1724.488C1667.466,1724.488 1662.716,1720.838 1661.116,1715.838C1668.016,1713.438 1673.016,1706.988 1673.016,1699.238L1673.016,1694.538L1650.466,1694.538L1650.466,1729.538ZM1655.516,1699.588L1667.966,1699.588C1667.716,1706.238 1662.216,1711.688 1655.516,1711.688L1655.516,1699.588Z" style="fill:url(#_Linear1);fill-rule:nonzero;"/>
                <path d="M1695.516,1724.488L1683.066,1724.488C1683.216,1717.838 1688.816,1712.388 1695.516,1712.388L1695.516,1707.338C1685.866,1707.338 1678.016,1715.188 1678.016,1724.838L1678.016,1729.538L1695.516,1729.538L1695.516,1724.488ZM1695.516,1694.538C1685.9,1694.538 1678.071,1702.332 1678.016,1711.936C1678.016,1711.97 1678.016,1724.713 1678.016,1724.747L1683.066,1724.747C1683.066,1724.717 1683.066,1711.978 1683.066,1711.948C1683.115,1705.139 1688.696,1699.588 1695.516,1699.588L1695.516,1694.538Z" style="fill:url(#_Linear2);fill-rule:nonzero;"/>
                <path d="M1722.477,1712.038C1722.477,1702.388 1714.627,1694.538 1704.977,1694.538L1699.927,1694.538L1699.927,1729.538L1704.977,1729.538L1704.977,1699.588C1711.827,1699.588 1717.427,1705.188 1717.427,1712.038L1717.427,1729.538L1722.477,1729.538L1722.477,1712.038Z" style="fill:url(#_Linear3);fill-rule:nonzero;"/>
                <g transform="matrix(1,0,0,1,43.742901,0)">
                    <path d="M1722.477,1712.038C1722.477,1702.388 1714.627,1694.538 1704.977,1694.538L1699.927,1694.538L1699.927,1729.538L1704.977,1729.538L1704.977,1699.588C1711.827,1699.588 1717.427,1705.188 1717.427,1712.038L1717.427,1729.538L1722.477,1729.538L1722.477,1712.038Z" style="fill:url(#_Linear4);fill-rule:nonzero;"/>
                </g>
                <g transform="matrix(1,0,0,1,17.770554,0)">
                    <path d="M1722.477,1712.038C1722.477,1702.388 1714.627,1694.538 1704.977,1694.538L1699.927,1694.538L1699.927,1729.538L1704.977,1729.538L1704.977,1699.588C1711.827,1699.588 1717.427,1705.188 1717.427,1712.038L1717.427,1729.538L1722.477,1729.538L1722.477,1712.038Z" style="fill:url(#_Linear5);fill-rule:nonzero;"/>
                </g>
                <g transform="matrix(1,0,0,1,61.513455,0)">
                    <path d="M1722.477,1712.038C1722.477,1702.388 1714.627,1694.538 1704.977,1694.538L1699.927,1694.538L1699.927,1729.538L1704.977,1729.538L1704.977,1699.588C1711.827,1699.588 1717.427,1705.188 1717.427,1712.038L1717.427,1729.538L1722.477,1729.538L1722.477,1712.038Z" style="fill:url(#_Linear6);fill-rule:nonzero;"/>
                </g>
                <rect x="1790.616" y="1694.538" width="5.05" height="35" style="fill:url(#_Linear7);fill-rule:nonzero;"/>
                <path d="M1816.316,1724.488C1809.466,1724.488 1803.866,1718.888 1803.866,1712.038C1803.866,1705.188 1809.466,1699.588 1816.316,1699.588L1816.316,1694.538C1806.666,1694.538 1798.816,1702.388 1798.816,1712.038C1798.816,1721.688 1806.666,1729.538 1816.316,1729.538L1816.316,1724.488Z" style="fill:url(#_Linear8);fill-rule:nonzero;"/>
            </g>
            <g transform="matrix(0.477504,0,0,0.4561,-7045.141038,-430.258038)">
                <path d="M25404.766,3799.558L25364.186,3799.558L25364.186,3853.332L25355.39,3853.332L25355.39,3713.4L25415.961,3713.4C25425.023,3713.4 25432.986,3715.199 25439.849,3718.798C25446.713,3722.396 25452.01,3727.46 25455.741,3733.99C25459.473,3740.52 25461.339,3748.05 25461.339,3756.579C25461.339,3765.108 25459.473,3772.605 25455.741,3779.068C25452.01,3785.532 25446.746,3790.562 25439.949,3794.161C25433.152,3797.759 25425.223,3799.558 25416.161,3799.558L25465.737,3853.332L25454.342,3853.332L25404.766,3799.558ZM25452.543,3756.579C25452.543,3746.051 25449.245,3737.655 25442.648,3731.391C25436.051,3725.128 25427.155,3721.996 25415.961,3721.996L25364.186,3721.996L25364.186,3791.162L25415.961,3791.162C25427.155,3791.162 25436.051,3788.03 25442.648,3781.767C25449.245,3775.503 25452.543,3767.107 25452.543,3756.579Z" style="fill:white;fill-rule:nonzero;"/>
                <path d="M25529.106,3752.781C25538.967,3752.781 25547.663,3754.813 25555.193,3758.878C25562.723,3762.943 25568.52,3768.64 25572.584,3775.97C25576.649,3783.299 25578.681,3791.762 25578.681,3801.357C25578.681,3803.889 25578.615,3805.822 25578.481,3807.154L25487.926,3807.154C25488.859,3819.548 25493.057,3829.344 25500.52,3836.54C25507.983,3843.736 25517.645,3847.335 25529.505,3847.335C25536.835,3847.335 25543.832,3845.869 25550.495,3842.937C25557.159,3840.005 25562.289,3836.14 25565.888,3831.343L25571.885,3836.34C25567.22,3842.204 25561.157,3846.835 25553.694,3850.233C25546.231,3853.632 25538.168,3855.331 25529.505,3855.331C25519.91,3855.331 25511.314,3853.132 25503.718,3848.734C25496.122,3844.336 25490.191,3838.239 25485.927,3830.443C25481.662,3822.647 25479.53,3813.818 25479.53,3803.956C25479.53,3794.094 25481.629,3785.298 25485.827,3777.569C25490.025,3769.839 25495.888,3763.776 25503.418,3759.378C25510.948,3754.98 25519.51,3752.781 25529.106,3752.781ZM25529.106,3760.577C25517.511,3760.577 25507.983,3764.142 25500.52,3771.272C25493.057,3778.402 25488.859,3787.764 25487.926,3799.358L25570.485,3799.358C25570.485,3791.762 25568.72,3785.032 25565.188,3779.168C25561.656,3773.304 25556.792,3768.74 25550.595,3765.475C25544.398,3762.21 25537.235,3760.577 25529.106,3760.577Z" style="fill:white;fill-rule:nonzero;"/>
                <path d="M25696.824,3754.58L25696.824,3853.332L25688.828,3853.332L25688.628,3831.343C25684.896,3838.672 25679.266,3844.436 25671.736,3848.634C25664.206,3852.832 25655.71,3854.931 25646.248,3854.931C25636.653,3854.931 25628.124,3852.765 25620.661,3848.434C25613.198,3844.103 25607.367,3838.073 25603.169,3830.343C25598.971,3822.613 25596.873,3813.818 25596.873,3803.956C25596.873,3794.094 25598.971,3785.298 25603.169,3777.569C25607.367,3769.839 25613.198,3763.809 25620.661,3759.478C25628.124,3755.146 25636.653,3752.981 25646.248,3752.981C25655.71,3752.981 25664.206,3755.113 25671.736,3759.378C25679.266,3763.642 25684.896,3769.439 25688.628,3776.769L25688.828,3754.58L25696.824,3754.58ZM25646.848,3847.135C25654.844,3847.135 25662.007,3845.336 25668.338,3841.737C25674.668,3838.139 25679.599,3833.075 25683.13,3826.545C25686.662,3820.015 25688.428,3812.485 25688.428,3803.956C25688.428,3795.427 25686.662,3787.897 25683.13,3781.367C25679.599,3774.837 25674.668,3769.773 25668.338,3766.174C25662.007,3762.576 25654.844,3760.777 25646.848,3760.777C25638.719,3760.777 25631.522,3762.576 25625.259,3766.174C25618.995,3769.773 25614.097,3774.837 25610.566,3781.367C25607.034,3787.897 25605.268,3795.427 25605.268,3803.956C25605.268,3812.485 25607.034,3820.015 25610.566,3826.545C25614.097,3833.075 25618.995,3838.139 25625.259,3841.737C25631.522,3845.336 25638.719,3847.135 25646.848,3847.135Z" style="fill:white;fill-rule:nonzero;"/>
                <rect x="25729.808" y="3713.4" width="8.396" height="139.932" style="fill:white;fill-rule:nonzero;"/>
                <path d="M25836.955,3844.936L25926.711,3844.936L25926.711,3853.332L25828.16,3853.332L25828.16,3713.4L25924.113,3713.4L25924.113,3721.796L25836.955,3721.796L25836.955,3778.368L25919.915,3778.368L25919.915,3786.764L25836.955,3786.764L25836.955,3844.936Z" style="fill:white;fill-rule:nonzero;"/>
                <path d="M25988.481,3855.131C25979.552,3855.131 25971.223,3853.465 25963.493,3850.133C25955.764,3846.802 25949.767,3842.537 25945.502,3837.34L25950.7,3831.742C25954.831,3836.407 25960.228,3840.138 25966.892,3842.937C25973.555,3845.736 25980.752,3847.135 25988.481,3847.135C25998.21,3847.135 26006.006,3845.302 26011.87,3841.638C26017.734,3837.973 26020.666,3833.075 26020.666,3826.945C26020.666,3823.213 26019.666,3820.148 26017.667,3817.749C26015.668,3815.35 26012.303,3813.285 26007.572,3811.552C26002.841,3809.82 25996.011,3808.087 25987.082,3806.355C25977.353,3804.489 25969.757,3802.457 25964.293,3800.258C25958.829,3798.059 25954.898,3795.327 25952.499,3792.062C25950.1,3788.797 25948.901,3784.632 25948.901,3779.568C25948.901,3771.305 25952.499,3764.775 25959.695,3759.977C25966.892,3755.18 25976.62,3752.781 25988.881,3752.781C25996.744,3752.781 26003.707,3753.847 26009.771,3755.979C26015.835,3758.112 26021.532,3761.377 26026.863,3765.775L26022.065,3771.772C26017.267,3767.907 26012.303,3765.075 26007.172,3763.276C26002.041,3761.477 25996.011,3760.577 25989.081,3760.577C25978.953,3760.577 25971.123,3762.243 25965.592,3765.575C25960.062,3768.906 25957.296,3773.571 25957.296,3779.568C25957.296,3783.166 25958.229,3786.065 25960.095,3788.264C25961.961,3790.463 25965.059,3792.362 25969.391,3793.961C25973.722,3795.56 25980.019,3797.159 25988.281,3798.758C25998.543,3800.624 26006.572,3802.723 26012.37,3805.055C26018.167,3807.388 26022.365,3810.319 26024.963,3813.851C26027.562,3817.383 26028.862,3821.814 26028.862,3827.145C26028.862,3835.54 26025.163,3842.304 26017.767,3847.435C26010.371,3852.566 26000.609,3855.131 25988.481,3855.131Z" style="fill:white;fill-rule:nonzero;"/>
                <path d="M26113.22,3849.734C26106.024,3853.332 26099.294,3855.131 26093.03,3855.131C26083.035,3855.131 26076.039,3852.532 26072.04,3847.335C26068.042,3842.137 26066.043,3834.274 26066.043,3823.746L26066.043,3762.376L26044.854,3762.376L26044.854,3754.58L26066.043,3754.58L26066.043,3725.394L26074.439,3724.595L26074.439,3754.58L26108.623,3754.58L26108.623,3762.376L26074.439,3762.376L26074.439,3823.746C26074.439,3831.609 26075.705,3837.54 26078.237,3841.538C26080.77,3845.536 26085.7,3847.535 26093.03,3847.535C26095.296,3847.535 26098.028,3847.068 26101.226,3846.135C26104.425,3845.202 26107.357,3844.07 26110.022,3842.737L26113.22,3849.734Z" style="fill:white;fill-rule:nonzero;"/>
                <path d="M26225.166,3754.58L26225.166,3853.332L26217.17,3853.332L26216.97,3831.343C26213.238,3838.672 26207.608,3844.436 26200.078,3848.634C26192.548,3852.832 26184.052,3854.931 26174.59,3854.931C26164.995,3854.931 26156.466,3852.765 26149.003,3848.434C26141.54,3844.103 26135.709,3838.073 26131.511,3830.343C26127.313,3822.613 26125.214,3813.818 26125.214,3803.956C26125.214,3794.094 26127.313,3785.298 26131.511,3777.569C26135.709,3769.839 26141.54,3763.809 26149.003,3759.478C26156.466,3755.146 26164.995,3752.981 26174.59,3752.981C26184.052,3752.981 26192.548,3755.113 26200.078,3759.378C26207.608,3763.642 26213.238,3769.439 26216.97,3776.769L26217.17,3754.58L26225.166,3754.58ZM26175.19,3847.135C26183.186,3847.135 26190.349,3845.336 26196.68,3841.737C26203.01,3838.139 26207.941,3833.075 26211.472,3826.545C26215.004,3820.015 26216.77,3812.485 26216.77,3803.956C26216.77,3795.427 26215.004,3787.897 26211.472,3781.367C26207.941,3774.837 26203.01,3769.773 26196.68,3766.174C26190.349,3762.576 26183.186,3760.777 26175.19,3760.777C26167.061,3760.777 26159.864,3762.576 26153.601,3766.174C26147.337,3769.773 26142.439,3774.837 26138.908,3781.367C26135.376,3787.897 26133.61,3795.427 26133.61,3803.956C26133.61,3812.485 26135.376,3820.015 26138.908,3826.545C26142.439,3833.075 26147.337,3838.139 26153.601,3841.737C26159.864,3845.336 26167.061,3847.135 26175.19,3847.135Z" style="fill:white;fill-rule:nonzero;"/>
                <path d="M26317.121,3849.734C26309.924,3853.332 26303.194,3855.131 26296.931,3855.131C26286.936,3855.131 26279.939,3852.532 26275.941,3847.335C26271.943,3842.137 26269.944,3834.274 26269.944,3823.746L26269.944,3762.376L26248.754,3762.376L26248.754,3754.58L26269.944,3754.58L26269.944,3725.394L26278.34,3724.595L26278.34,3754.58L26312.523,3754.58L26312.523,3762.376L26278.34,3762.376L26278.34,3823.746C26278.34,3831.609 26279.606,3837.54 26282.138,3841.538C26284.67,3845.536 26289.601,3847.535 26296.931,3847.535C26299.196,3847.535 26301.928,3847.068 26305.127,3846.135C26308.325,3845.202 26311.257,3844.07 26313.922,3842.737L26317.121,3849.734Z" style="fill:white;fill-rule:nonzero;"/>
                <path d="M26378.691,3752.781C26388.553,3752.781 26397.248,3754.813 26404.778,3758.878C26412.308,3762.943 26418.105,3768.64 26422.169,3775.97C26426.234,3783.299 26428.266,3791.762 26428.266,3801.357C26428.266,3803.889 26428.2,3805.822 26428.067,3807.154L26337.511,3807.154C26338.444,3819.548 26342.642,3829.344 26350.105,3836.54C26357.568,3843.736 26367.23,3847.335 26379.091,3847.335C26386.42,3847.335 26393.417,3845.869 26400.08,3842.937C26406.744,3840.005 26411.875,3836.14 26415.473,3831.343L26421.47,3836.34C26416.805,3842.204 26410.742,3846.835 26403.279,3850.233C26395.816,3853.632 26387.753,3855.331 26379.091,3855.331C26369.495,3855.331 26360.899,3853.132 26353.303,3848.734C26345.707,3844.336 26339.776,3838.239 26335.512,3830.443C26331.247,3822.647 26329.115,3813.818 26329.115,3803.956C26329.115,3794.094 26331.214,3785.298 26335.412,3777.569C26339.61,3769.839 26345.474,3763.776 26353.003,3759.378C26360.533,3754.98 26369.095,3752.781 26378.691,3752.781ZM26378.691,3760.577C26367.096,3760.577 26357.568,3764.142 26350.105,3771.272C26342.642,3778.402 26338.444,3787.764 26337.511,3799.358L26420.07,3799.358C26420.07,3791.762 26418.305,3785.032 26414.773,3779.168C26411.241,3773.304 26406.377,3768.74 26400.18,3765.475C26393.983,3762.21 26386.82,3760.577 26378.691,3760.577Z" style="fill:white;fill-rule:nonzero;"/>
                <path d="M26591.187,3781.767C26599.45,3784.432 26605.913,3788.763 26610.577,3794.76C26615.242,3800.757 26617.574,3807.821 26617.574,3815.95C26617.574,3827.544 26613.443,3836.673 26605.18,3843.337C26596.917,3850 26585.523,3853.332 26570.997,3853.332L26510.027,3853.332L26510.027,3713.4L26570.997,3713.4C26583.524,3713.4 26593.586,3716.699 26601.182,3723.295C26608.778,3729.892 26612.576,3738.654 26612.576,3749.582C26612.576,3757.045 26610.644,3763.709 26606.779,3769.573C26602.915,3775.437 26597.717,3779.501 26591.187,3781.767ZM26603.981,3749.982C26603.981,3741.32 26601.015,3734.457 26595.085,3729.392C26589.155,3724.328 26581.125,3721.796 26570.997,3721.796L26518.822,3721.796L26518.822,3777.769L26570.997,3777.769C26581.392,3777.769 26589.488,3775.303 26595.285,3770.372C26601.082,3765.441 26603.981,3758.645 26603.981,3749.982ZM26571.397,3844.936C26583.124,3844.936 26592.286,3842.337 26598.883,3837.14C26605.48,3831.942 26608.778,3824.746 26608.778,3815.55C26608.778,3806.488 26605.413,3799.325 26598.683,3794.061C26591.953,3788.797 26582.858,3786.165 26571.397,3786.165L26518.822,3786.165L26518.822,3844.936L26571.397,3844.936Z" style="fill:white;fill-rule:nonzero;"/>
                <rect x="26644.561" y="3713.4" width="8.396" height="139.932" style="fill:white;fill-rule:nonzero;"/>
                <path d="M26729.719,3855.131C26720.124,3855.131 26711.495,3852.932 26703.832,3848.534C26696.169,3844.136 26690.172,3838.039 26685.841,3830.243C26681.509,3822.447 26679.344,3813.685 26679.344,3803.956C26679.344,3794.227 26681.509,3785.465 26685.841,3777.669C26690.172,3769.873 26696.169,3763.776 26703.832,3759.378C26711.495,3754.98 26720.124,3752.781 26729.719,3752.781C26739.448,3752.781 26748.144,3754.98 26755.807,3759.378C26763.469,3763.776 26769.467,3769.873 26773.798,3777.669C26778.129,3785.465 26780.295,3794.227 26780.295,3803.956C26780.295,3813.685 26778.129,3822.447 26773.798,3830.243C26769.467,3838.039 26763.469,3844.136 26755.807,3848.534C26748.144,3852.932 26739.448,3855.131 26729.719,3855.131ZM26729.719,3847.135C26737.715,3847.135 26744.912,3845.269 26751.309,3841.538C26757.706,3837.806 26762.736,3832.642 26766.401,3826.045C26770.066,3819.448 26771.899,3812.085 26771.899,3803.956C26771.899,3795.827 26770.066,3788.463 26766.401,3781.867C26762.736,3775.27 26757.706,3770.106 26751.309,3766.374C26744.912,3762.643 26737.715,3760.777 26729.719,3760.777C26721.723,3760.777 26714.527,3762.643 26708.13,3766.374C26701.733,3770.106 26696.735,3775.27 26693.137,3781.867C26689.539,3788.463 26687.74,3795.827 26687.74,3803.956C26687.74,3812.085 26689.539,3819.448 26693.137,3826.045C26696.735,3832.642 26701.733,3837.806 26708.13,3841.538C26714.527,3845.269 26721.723,3847.135 26729.719,3847.135Z" style="fill:white;fill-rule:nonzero;"/>
                <path d="M26851.46,3855.131C26841.865,3855.131 26833.169,3852.965 26825.373,3848.634C26817.576,3844.303 26811.446,3838.239 26806.982,3830.443C26802.517,3822.647 26800.285,3813.818 26800.285,3803.956C26800.285,3793.828 26802.517,3784.899 26806.982,3777.169C26811.446,3769.439 26817.543,3763.442 26825.273,3759.178C26833.002,3754.913 26841.731,3752.781 26851.46,3752.781C26865.186,3752.781 26876.914,3757.645 26886.643,3767.374L26881.045,3772.971C26877.181,3768.84 26872.683,3765.775 26867.552,3763.776C26862.421,3761.777 26856.99,3760.777 26851.26,3760.777C26843.397,3760.777 26836.234,3762.476 26829.77,3765.875C26823.307,3769.273 26818.176,3774.237 26814.378,3780.767C26810.58,3787.297 26808.681,3795.027 26808.681,3803.956C26808.681,3812.618 26810.58,3820.215 26814.378,3826.745C26818.176,3833.275 26823.34,3838.306 26829.87,3841.837C26836.401,3845.369 26843.597,3847.135 26851.46,3847.135C26857.19,3847.135 26862.688,3846.102 26867.952,3844.036C26873.216,3841.971 26877.914,3838.872 26882.045,3834.741L26887.642,3840.738C26882.711,3845.402 26877.114,3848.967 26870.85,3851.433C26864.587,3853.898 26858.123,3855.131 26851.46,3855.131Z" style="fill:white;fill-rule:nonzero;"/>
                <path d="M26986.594,3853.332L26974.6,3853.332L26921.026,3806.155L26921.026,3853.332L26912.63,3853.332L26912.63,3713.4L26921.026,3713.4L26921.026,3799.958L26969.202,3754.58L26980.597,3754.58L26929.222,3802.956L26986.594,3853.332Z" style="fill:white;fill-rule:nonzero;"/>
                <path d="M27043.766,3855.131C27034.171,3855.131 27025.475,3852.965 27017.679,3848.634C27009.882,3844.303 27003.752,3838.239 26999.288,3830.443C26994.823,3822.647 26992.591,3813.818 26992.591,3803.956C26992.591,3793.828 26994.823,3784.899 26999.288,3777.169C27003.752,3769.439 27009.849,3763.442 27017.579,3759.178C27025.308,3754.913 27034.037,3752.781 27043.766,3752.781C27057.493,3752.781 27069.22,3757.645 27078.949,3767.374L27073.351,3772.971C27069.487,3768.84 27064.989,3765.775 27059.858,3763.776C27054.727,3761.777 27049.297,3760.777 27043.566,3760.777C27035.703,3760.777 27028.54,3762.476 27022.077,3765.875C27015.613,3769.273 27010.482,3774.237 27006.684,3780.767C27002.886,3787.297 27000.987,3795.027 27000.987,3803.956C27000.987,3812.618 27002.886,3820.215 27006.684,3826.745C27010.482,3833.275 27015.646,3838.306 27022.176,3841.837C27028.707,3845.369 27035.903,3847.135 27043.766,3847.135C27049.496,3847.135 27054.994,3846.102 27060.258,3844.036C27065.522,3841.971 27070.22,3838.872 27074.351,3834.741L27079.948,3840.738C27075.017,3845.402 27069.42,3848.967 27063.156,3851.433C27056.893,3853.898 27050.429,3855.131 27043.766,3855.131Z" style="fill:white;fill-rule:nonzero;"/>
                <path d="M27151.713,3753.181C27164.773,3753.181 27175.002,3756.979 27182.398,3764.575C27189.795,3772.171 27193.493,3782.766 27193.493,3796.36L27193.493,3853.332L27185.097,3853.332L27185.097,3796.759C27185.097,3785.298 27182.165,3776.503 27176.301,3770.372C27170.437,3764.242 27162.108,3761.177 27151.313,3761.177C27143.984,3761.177 27137.42,3762.809 27131.623,3766.074C27125.826,3769.339 27121.328,3773.804 27118.13,3779.468C27114.931,3785.132 27113.332,3791.429 27113.332,3798.359L27113.332,3853.332L27104.936,3853.332L27104.936,3713.4L27113.332,3713.4L27113.332,3773.771C27117.197,3767.374 27122.494,3762.343 27129.224,3758.678C27135.954,3755.013 27143.451,3753.181 27151.713,3753.181Z" style="fill:white;fill-rule:nonzero;"/>
                <path d="M27318.632,3754.58L27318.632,3853.332L27310.636,3853.332L27310.436,3831.343C27306.704,3838.672 27301.074,3844.436 27293.544,3848.634C27286.014,3852.832 27277.518,3854.931 27268.056,3854.931C27258.461,3854.931 27249.932,3852.765 27242.469,3848.434C27235.006,3844.103 27229.175,3838.073 27224.977,3830.343C27220.779,3822.613 27218.68,3813.818 27218.68,3803.956C27218.68,3794.094 27220.779,3785.298 27224.977,3777.569C27229.175,3769.839 27235.006,3763.809 27242.469,3759.478C27249.932,3755.146 27258.461,3752.981 27268.056,3752.981C27277.518,3752.981 27286.014,3755.113 27293.544,3759.378C27301.074,3763.642 27306.704,3769.439 27310.436,3776.769L27310.636,3754.58L27318.632,3754.58ZM27268.656,3847.135C27276.652,3847.135 27283.815,3845.336 27290.146,3841.737C27296.476,3838.139 27301.407,3833.075 27304.938,3826.545C27308.47,3820.015 27310.236,3812.485 27310.236,3803.956C27310.236,3795.427 27308.47,3787.897 27304.938,3781.367C27301.407,3774.837 27296.476,3769.773 27290.146,3766.174C27283.815,3762.576 27276.652,3760.777 27268.656,3760.777C27260.527,3760.777 27253.33,3762.576 27247.067,3766.174C27240.803,3769.773 27235.905,3774.837 27232.374,3781.367C27228.842,3787.897 27227.076,3795.427 27227.076,3803.956C27227.076,3812.485 27228.842,3820.015 27232.374,3826.545C27235.905,3833.075 27240.803,3838.139 27247.067,3841.737C27253.33,3845.336 27260.527,3847.135 27268.656,3847.135Z" style="fill:white;fill-rule:nonzero;"/>
                <path d="M27355.814,3731.191C27353.548,3731.191 27351.716,3730.492 27350.316,3729.092C27348.917,3727.693 27348.217,3725.927 27348.217,3723.795C27348.217,3721.663 27348.917,3719.864 27350.316,3718.398C27351.716,3716.932 27353.548,3716.199 27355.814,3716.199C27357.946,3716.199 27359.745,3716.932 27361.211,3718.398C27362.677,3719.864 27363.41,3721.663 27363.41,3723.795C27363.41,3725.927 27362.677,3727.693 27361.211,3729.092C27359.745,3730.492 27357.946,3731.191 27355.814,3731.191ZM27351.616,3754.58L27360.011,3754.58L27360.011,3853.332L27351.616,3853.332L27351.616,3754.58Z" style="fill:white;fill-rule:nonzero;"/>
                <path d="M27439.773,3753.181C27452.833,3753.181 27463.061,3756.979 27470.458,3764.575C27477.854,3772.171 27481.552,3782.766 27481.552,3796.36L27481.552,3853.332L27473.156,3853.332L27473.156,3796.759C27473.156,3785.298 27470.224,3776.503 27464.361,3770.372C27458.497,3764.242 27450.167,3761.177 27439.373,3761.177C27432.043,3761.177 27425.48,3762.809 27419.682,3766.074C27413.885,3769.339 27409.387,3773.804 27406.189,3779.468C27402.99,3785.132 27401.391,3791.429 27401.391,3798.359L27401.391,3853.332L27392.995,3853.332L27392.995,3754.58L27400.991,3754.58L27400.991,3773.971C27404.856,3767.574 27410.187,3762.509 27416.984,3758.778C27423.78,3755.046 27431.377,3753.181 27439.773,3753.181Z" style="fill:white;fill-rule:nonzero;"/>
            </g>
            <g transform="matrix(1.257568,0,0,1.165805,4442.637472,866.482418)">
                <path d="M309.327,176.548C307.023,170.788 304.393,168.861 296.5,168.987C287.638,169.129 235.233,168.982 231.489,169.055C224.157,169.198 221.8,175.224 221.381,177.476C220.78,180.705 221.172,353.949 221.159,355.497C221.103,362.273 219.296,362.758 206.528,375.528C196.404,385.655 161.851,420.342 156.548,425.548C145.686,436.21 143.438,438.948 141.38,440.32C138.439,442.28 135.029,441.274 133.696,440.238C131.598,438.609 131.283,436.875 131.165,436.588C131.11,436.206 130.976,435.839 130.922,435.457C130.734,434.148 130.932,291.463 130.82,281.438C130.814,280.805 130.766,275.3 130.72,273.528C130.751,271.983 130.75,272.003 130.713,270.472C130.797,267.248 130.843,263.188 130.85,262.554C130.39,262.616 130.823,256.442 130.823,256.442C131.143,253.548 131.166,253.568 131.816,250.726L132.074,250.214C132.528,249.22 132.511,249.228 133.056,248.285C134.361,246.08 134.403,246.117 137.212,243.204C138.681,241.682 138.665,241.692 140.223,240.249C141.241,239.218 141.232,239.228 142.263,238.224C144.147,236.136 272.925,107.36 287.241,93.231C297.821,82.789 299.081,80.465 305.436,79.169C307.493,78.75 307.507,78.797 383.5,78.797C387.587,78.797 398.076,77.355 399.879,87.44C400.128,88.83 400.103,88.832 400.103,160.5C400.103,176.054 400.938,180.932 395.094,187.118C394.732,187.501 337.6,244.615 332.599,249.614C330.783,251.396 329.931,252.396 329.713,252.651C329.525,252.849 329.375,253.08 329.186,253.278C327.653,254.884 325.712,256.036 321.165,261.228C319.385,262.134 319.419,262.171 317.511,262.75C315.984,262.781 315.996,262.802 314.478,262.561C309.455,260.233 309.68,257.864 309.846,252.507C309.678,249.568 309.719,249.577 309.719,230.5C309.719,179.276 309.768,179.257 309.327,176.548ZM194.11,237.481C193.034,236.411 191.292,236.414 190.222,237.49L137.835,290.112C136.765,291.187 136.769,292.929 137.844,294C138.919,295.07 140.661,295.066 141.732,293.991L194.118,241.369C195.189,240.293 195.185,238.551 194.11,237.481ZM194.11,281.381C193.034,280.311 191.292,280.315 190.222,281.39L137.835,334.013C136.765,335.088 136.769,336.83 137.844,337.9C138.919,338.971 140.661,338.967 141.732,337.891L194.118,285.269C195.189,284.194 195.185,282.452 194.11,281.381ZM194.11,217.97C193.034,216.899 191.292,216.903 190.222,217.978L137.835,270.601C136.765,271.676 136.769,273.418 137.844,274.488C138.919,275.559 140.661,275.555 141.732,274.48L194.118,221.857C195.189,220.782 195.185,219.04 194.11,217.97ZM198.688,259.431C197.612,260.502 197.609,262.244 198.679,263.319L206.835,271.512C207.906,272.587 209.648,272.591 210.723,271.521C211.798,270.45 211.802,268.708 210.732,267.633L202.575,259.44C201.505,258.365 199.763,258.361 198.688,259.431ZM198.688,329.574C197.612,330.645 197.609,332.387 198.679,333.462L206.835,341.655C207.906,342.73 209.648,342.734 210.723,341.664C211.798,340.593 211.802,338.851 210.732,337.776L202.575,329.583C201.505,328.508 199.763,328.504 198.688,329.574ZM194.11,305.771C193.034,304.7 191.292,304.704 190.222,305.779L137.835,358.402C136.765,359.477 136.769,361.219 137.844,362.289C138.919,363.36 140.661,363.356 141.732,362.281L194.118,309.658C195.189,308.583 195.185,306.841 194.11,305.771ZM194.11,259.431C193.034,258.361 191.292,258.365 190.222,259.44L137.835,312.062C136.765,313.138 136.769,314.88 137.844,315.95C138.919,317.02 140.661,317.016 141.732,315.941L194.118,263.319C195.189,262.244 195.185,260.502 194.11,259.431ZM198.688,217.97C197.612,219.04 197.609,220.782 198.679,221.857L206.835,230.05C207.906,231.126 209.648,231.13 210.723,230.059C211.798,228.989 211.802,227.247 210.732,226.172L202.575,217.978C201.505,216.903 199.763,216.899 198.688,217.97ZM194.11,329.574C193.034,328.504 191.292,328.508 190.222,329.583L137.835,382.205C136.765,383.281 136.769,385.023 137.844,386.093C138.919,387.164 140.661,387.16 141.732,386.084L194.118,333.462C195.189,332.387 195.185,330.645 194.11,329.574ZM198.688,237.481C197.612,238.551 197.609,240.293 198.679,241.369L206.835,249.562C207.906,250.637 209.648,250.641 210.723,249.57C211.798,248.5 211.802,246.758 210.732,245.683L202.575,237.49C201.505,236.414 199.763,236.411 198.688,237.481ZM198.688,281.381C197.612,282.452 197.609,284.194 198.679,285.269L206.835,293.462C207.906,294.537 209.648,294.541 210.723,293.471C211.798,292.401 211.802,290.659 210.732,289.583L202.575,281.39C201.505,280.315 199.763,280.311 198.688,281.381ZM198.688,305.771C197.612,306.841 197.609,308.583 198.679,309.658L206.835,317.851C207.906,318.927 209.648,318.93 210.723,317.86C211.798,316.79 211.802,315.048 210.732,313.972L202.575,305.779C201.505,304.704 199.763,304.7 198.688,305.771ZM350.502,275.477C363.732,276.677 374.054,284.135 379.297,288.734C402.14,308.769 400.109,331.433 400.109,343.5C400.109,362.025 400.435,362.49 397.928,364.928C395.566,367.224 395.167,366.922 376.5,366.922C316.043,366.922 316.014,366.978 314.49,366.533C308.859,364.887 309.732,358.819 309.732,351.5L309.962,280.592C310.099,279.371 310.479,276.182 314.501,275.502C320.707,275.405 343.097,274.805 350.502,275.477ZM341.852,282.965C341.116,282.965 340.759,284.199 341.798,284.261C381.776,286.653 392.981,321.547 392.476,337.709C392.478,338.676 394.115,338.807 393.986,337.129C393.986,307.235 370.626,282.965 341.852,282.965Z" style="fill:url(#_Linear9);"/>
            </g>
        </g>
    </g>
    <defs>
        <linearGradient id="_Linear1" x1="0" y1="0" x2="1" y2="0" gradientUnits="userSpaceOnUse" gradientTransform="matrix(165.85,0,0,165.85,1650.465514,1714.670516)"><stop offset="0" style="stop-color:rgb(126,85,0);stop-opacity:1"/><stop offset="0.1" style="stop-color:rgb(195,161,91);stop-opacity:1"/><stop offset="0.2" style="stop-color:rgb(174,129,36);stop-opacity:1"/><stop offset="0.34" style="stop-color:rgb(183,144,62);stop-opacity:1"/><stop offset="0.45" style="stop-color:rgb(190,146,54);stop-opacity:1"/><stop offset="0.63" style="stop-color:rgb(120,81,0);stop-opacity:1"/><stop offset="0.78" style="stop-color:rgb(192,146,50);stop-opacity:1"/><stop offset="0.89" style="stop-color:rgb(198,148,42);stop-opacity:1"/><stop offset="1" style="stop-color:rgb(171,118,8);stop-opacity:1"/></linearGradient>
        <linearGradient id="_Linear2" x1="0" y1="0" x2="1" y2="0" gradientUnits="userSpaceOnUse" gradientTransform="matrix(165.85,0,0,165.85,1650.465514,1714.670516)"><stop offset="0" style="stop-color:rgb(126,85,0);stop-opacity:1"/><stop offset="0.1" style="stop-color:rgb(195,161,91);stop-opacity:1"/><stop offset="0.2" style="stop-color:rgb(174,129,36);stop-opacity:1"/><stop offset="0.34" style="stop-color:rgb(183,144,62);stop-opacity:1"/><stop offset="0.45" style="stop-color:rgb(190,146,54);stop-opacity:1"/><stop offset="0.63" style="stop-color:rgb(120,81,0);stop-opacity:1"/><stop offset="0.78" style="stop-color:rgb(192,146,50);stop-opacity:1"/><stop offset="0.89" style="stop-color:rgb(198,148,42);stop-opacity:1"/><stop offset="1" style="stop-color:rgb(171,118,8);stop-opacity:1"/></linearGradient>
        <linearGradient id="_Linear3" x1="0" y1="0" x2="1" y2="0" gradientUnits="userSpaceOnUse" gradientTransform="matrix(165.85,0,0,165.85,1650.465514,1714.670516)"><stop offset="0" style="stop-color:rgb(126,85,0);stop-opacity:1"/><stop offset="0.1" style="stop-color:rgb(195,161,91);stop-opacity:1"/><stop offset="0.2" style="stop-color:rgb(174,129,36);stop-opacity:1"/><stop offset="0.34" style="stop-color:rgb(183,144,62);stop-opacity:1"/><stop offset="0.45" style="stop-color:rgb(190,146,54);stop-opacity:1"/><stop offset="0.63" style="stop-color:rgb(120,81,0);stop-opacity:1"/><stop offset="0.78" style="stop-color:rgb(192,146,50);stop-opacity:1"/><stop offset="0.89" style="stop-color:rgb(198,148,42);stop-opacity:1"/><stop offset="1" style="stop-color:rgb(171,118,8);stop-opacity:1"/></linearGradient>
        <linearGradient id="_Linear4" x1="0" y1="0" x2="1" y2="0" gradientUnits="userSpaceOnUse" gradientTransform="matrix(165.85,0,0,165.85,1606.722614,1714.670516)"><stop offset="0" style="stop-color:rgb(126,85,0);stop-opacity:1"/><stop offset="0.1" style="stop-color:rgb(195,161,91);stop-opacity:1"/><stop offset="0.2" style="stop-color:rgb(174,129,36);stop-opacity:1"/><stop offset="0.34" style="stop-color:rgb(183,144,62);stop-opacity:1"/><stop offset="0.45" style="stop-color:rgb(190,146,54);stop-opacity:1"/><stop offset="0.63" style="stop-color:rgb(120,81,0);stop-opacity:1"/><stop offset="0.78" style="stop-color:rgb(192,146,50);stop-opacity:1"/><stop offset="0.89" style="stop-color:rgb(198,148,42);stop-opacity:1"/><stop offset="1" style="stop-color:rgb(171,118,8);stop-opacity:1"/></linearGradient>
        <linearGradient id="_Linear5" x1="0" y1="0" x2="1" y2="0" gradientUnits="userSpaceOnUse" gradientTransform="matrix(165.85,0,0,165.85,1632.69496,1714.670516)"><stop offset="0" style="stop-color:rgb(126,85,0);stop-opacity:1"/><stop offset="0.1" style="stop-color:rgb(195,161,91);stop-opacity:1"/><stop offset="0.2" style="stop-color:rgb(174,129,36);stop-opacity:1"/><stop offset="0.34" style="stop-color:rgb(183,144,62);stop-opacity:1"/><stop offset="0.45" style="stop-color:rgb(190,146,54);stop-opacity:1"/><stop offset="0.63" style="stop-color:rgb(120,81,0);stop-opacity:1"/><stop offset="0.78" style="stop-color:rgb(192,146,50);stop-opacity:1"/><stop offset="0.89" style="stop-color:rgb(198,148,42);stop-opacity:1"/><stop offset="1" style="stop-color:rgb(171,118,8);stop-opacity:1"/></linearGradient>
        <linearGradient id="_Linear6" x1="0" y1="0" x2="1" y2="0" gradientUnits="userSpaceOnUse" gradientTransform="matrix(165.85,0,0,165.85,1588.95206,1714.670516)"><stop offset="0" style="stop-color:rgb(126,85,0);stop-opacity:1"/><stop offset="0.1" style="stop-color:rgb(195,161,91);stop-opacity:1"/><stop offset="0.2" style="stop-color:rgb(174,129,36);stop-opacity:1"/><stop offset="0.34" style="stop-color:rgb(183,144,62);stop-opacity:1"/><stop offset="0.45" style="stop-color:rgb(190,146,54);stop-opacity:1"/><stop offset="0.63" style="stop-color:rgb(120,81,0);stop-opacity:1"/><stop offset="0.78" style="stop-color:rgb(192,146,50);stop-opacity:1"/><stop offset="0.89" style="stop-color:rgb(198,148,42);stop-opacity:1"/><stop offset="1" style="stop-color:rgb(171,118,8);stop-opacity:1"/></linearGradient>
        <linearGradient id="_Linear7" x1="0" y1="0" x2="1" y2="0" gradientUnits="userSpaceOnUse" gradientTransform="matrix(165.85,0,0,165.85,1650.465514,1714.670516)"><stop offset="0" style="stop-color:rgb(126,85,0);stop-opacity:1"/><stop offset="0.1" style="stop-color:rgb(195,161,91);stop-opacity:1"/><stop offset="0.2" style="stop-color:rgb(174,129,36);stop-opacity:1"/><stop offset="0.34" style="stop-color:rgb(183,144,62);stop-opacity:1"/><stop offset="0.45" style="stop-color:rgb(190,146,54);stop-opacity:1"/><stop offset="0.63" style="stop-color:rgb(120,81,0);stop-opacity:1"/><stop offset="0.78" style="stop-color:rgb(192,146,50);stop-opacity:1"/><stop offset="0.89" style="stop-color:rgb(198,148,42);stop-opacity:1"/><stop offset="1" style="stop-color:rgb(171,118,8);stop-opacity:1"/></linearGradient>
        <linearGradient id="_Linear8" x1="0" y1="0" x2="1" y2="0" gradientUnits="userSpaceOnUse" gradientTransform="matrix(165.85,0,0,165.85,1650.465514,1714.670516)"><stop offset="0" style="stop-color:rgb(126,85,0);stop-opacity:1"/><stop offset="0.1" style="stop-color:rgb(195,161,91);stop-opacity:1"/><stop offset="0.2" style="stop-color:rgb(174,129,36);stop-opacity:1"/><stop offset="0.34" style="stop-color:rgb(183,144,62);stop-opacity:1"/><stop offset="0.45" style="stop-color:rgb(190,146,54);stop-opacity:1"/><stop offset="0.63" style="stop-color:rgb(120,81,0);stop-opacity:1"/><stop offset="0.78" style="stop-color:rgb(192,146,50);stop-opacity:1"/><stop offset="0.89" style="stop-color:rgb(198,148,42);stop-opacity:1"/><stop offset="1" style="stop-color:rgb(171,118,8);stop-opacity:1"/></linearGradient>
        <linearGradient id="_Linear9" x1="0" y1="0" x2="1" y2="0" gradientUnits="userSpaceOnUse" gradientTransform="matrix(284.499429,0,0,293.136251,115.655976,260.081582)"><stop offset="0" style="stop-color:rgb(126,85,0);stop-opacity:1"/><stop offset="0.1" style="stop-color:rgb(195,161,91);stop-opacity:1"/><stop offset="0.2" style="stop-color:rgb(174,129,36);stop-opacity:1"/><stop offset="0.34" style="stop-color:rgb(183,144,62);stop-opacity:1"/><stop offset="0.45" style="stop-color:rgb(190,146,54);stop-opacity:1"/><stop offset="0.63" style="stop-color:rgb(207,146,20);stop-opacity:1"/><stop offset="0.78" style="stop-color:rgb(192,146,50);stop-opacity:1"/><stop offset="0.89" style="stop-color:rgb(187,143,51);stop-opacity:1"/><stop offset="1" style="stop-color:rgb(171,118,8);stop-opacity:1"/></linearGradient>
    </defs>
</svg>
